<svg width="29" height="26" viewBox="0 0 29 26" fill="none" xmlns="http://www.w3.org/2000/svg">
<path d="M21.0915 2.59634C25.4583 2.59634 29 6.10039 29 10.3898V26H10.548C6.17989 26 2.63817 22.4959 2.63817 18.2066V12.998H5.27436V18.2066C5.27819 19.5843 5.83533 20.9043 6.82378 21.8776C7.81222 22.851 9.1514 23.3982 10.548 23.3996H26.3638V10.3898C26.36 9.0123 25.803 7.69245 24.8149 6.71917C23.8267 5.74588 22.4879 5.19846 21.0915 5.19674H13.1829V2.59634H21.0915ZM13.1829 15.5984H10.5467V12.998H13.1829V15.5984ZM21.0915 15.5984H18.4553V12.998H21.0915V15.5984ZM4.65485 0.411997C4.70477 0.29027 4.79041 0.186023 4.90078 0.112619C5.01116 0.0392155 5.14124 0 5.27436 0C5.40747 0 5.53755 0.0392155 5.64793 0.112619C5.7583 0.186023 5.84394 0.29027 5.89386 0.411997L6.22865 1.20512C6.78817 2.55093 7.84963 3.63381 9.19436 4.23069L10.1407 4.64676C10.2618 4.70199 10.3642 4.79023 10.436 4.90104C10.5078 5.01186 10.546 5.14064 10.546 5.27216C10.546 5.40368 10.5078 5.53245 10.436 5.64327C10.3642 5.75409 10.2618 5.84232 10.1407 5.89755L9.139 6.33702C7.82799 6.91734 6.78494 7.96108 6.21547 9.26248L5.8899 9.9984C5.83923 10.1182 5.75374 10.2206 5.64421 10.2926C5.53467 10.3646 5.40598 10.403 5.27436 10.403C5.14273 10.403 5.01404 10.3646 4.90451 10.2926C4.79497 10.2206 4.70948 10.1182 4.65881 9.9984L4.33324 9.26378C3.76373 7.96166 2.72014 6.91739 1.40839 6.33702L0.406645 5.89755C0.285273 5.84248 0.182456 5.75423 0.110382 5.64327C0.0383077 5.53231 0 5.40329 0 5.27151C0 5.13972 0.0383077 5.0107 0.110382 4.89974C0.182456 4.78878 0.285273 4.70053 0.406645 4.64546L1.35303 4.22939C2.69777 3.6334 3.75967 2.55149 4.32006 1.20642L4.65485 0.411997Z" fill="#343434"/>
</svg>
