<svg width="32" height="27" viewBox="0 0 32 27" fill="none" xmlns="http://www.w3.org/2000/svg">
<path d="M30.6243 14.3956C30.9006 14.3956 31.1656 14.2859 31.3609 14.0905C31.5563 13.8952 31.666 13.6302 31.666 13.3539C31.666 13.0777 31.5563 12.8127 31.3609 12.6174C31.1656 12.422 30.9006 12.3123 30.6243 12.3123L3.586 12.3123L14.271 1.80476C14.373 1.70997 14.455 1.59568 14.5121 1.46865C14.5692 1.34162 14.6002 1.20443 14.6034 1.0652C14.6065 0.925969 14.5817 0.78752 14.5304 0.658042C14.4791 0.528564 14.4024 0.410685 14.3047 0.311376C14.2071 0.212068 14.0906 0.133345 13.962 0.0798656C13.8334 0.0263858 13.6954 -0.000765634 13.5561 1.6426e-05C13.4168 0.000798486 13.2791 0.0294988 13.1512 0.0844194C13.0232 0.13934 12.9075 0.219366 12.811 0.319765L0.310992 12.6114C0.212475 12.7084 0.134232 12.8239 0.0808261 12.9514C0.0274184 13.0789 -8.37243e-05 13.2157 -8.37243e-05 13.3539C-8.37243e-05 13.4921 0.0274184 13.629 0.0808261 13.7565C0.134232 13.8839 0.212475 13.9995 0.310992 14.0964L12.811 26.3881C12.9075 26.4885 13.0232 26.5685 13.1512 26.6235C13.2791 26.6784 13.4168 26.7071 13.5561 26.7079C13.6954 26.7086 13.8334 26.6815 13.962 26.628C14.0906 26.5745 14.2071 26.4958 14.3047 26.3965C14.4024 26.2972 14.4791 26.1793 14.5304 26.0498C14.5817 25.9203 14.6065 25.7819 14.6034 25.6427C14.6002 25.5034 14.5692 25.3663 14.5121 25.2392C14.455 25.1122 14.373 24.9979 14.271 24.9031L3.586 14.3956L30.6243 14.3956Z" fill="#3E3E3E"/>
</svg>
