<svg width="90" height="45" viewBox="0 0 90 45" fill="none" xmlns="http://www.w3.org/2000/svg">
<rect width="89.676" height="44.7581" rx="16" fill="#EDB53E"/>
<path d="M26.3381 11.8008C24.3301 11.8004 22.3562 12.2728 20.6086 13.1721C18.8609 14.0713 17.399 15.3668 16.3652 16.9324C15.3313 18.498 14.7607 20.2803 14.7089 22.106C14.6572 23.9316 15.126 25.7384 16.0697 27.3503L14.8004 30.8136C14.6953 31.1003 14.68 31.408 14.7564 31.7022C14.8327 31.9964 14.9976 32.2654 15.2326 32.4791C15.4676 32.6929 15.7634 32.8429 16.0869 32.9123C16.4103 32.9817 16.7486 32.9678 17.0639 32.8722L20.8718 31.7178C22.4316 32.4723 24.1599 32.8938 25.9255 32.9501C27.6911 33.0065 29.4476 32.6962 31.0617 32.043C32.6758 31.3897 34.1051 30.4106 35.241 29.18C36.377 27.9493 37.1897 26.4995 37.6176 24.9405C38.0454 23.3815 38.0772 21.7544 37.7104 20.1826C37.3436 18.6108 36.5879 17.1357 35.5007 15.8691C34.4135 14.6026 33.0233 13.578 31.4357 12.8731C29.8481 12.1681 28.1048 11.8014 26.3381 11.8008ZM29.9167 24.8198H22.7595C22.5222 24.8198 22.2947 24.734 22.1269 24.5814C21.9591 24.4288 21.8648 24.2219 21.8648 24.0061C21.8648 23.7903 21.9591 23.5833 22.1269 23.4307C22.2947 23.2781 22.5222 23.1924 22.7595 23.1924H29.9167C30.154 23.1924 30.3815 23.2781 30.5493 23.4307C30.7171 23.5833 30.8114 23.7903 30.8114 24.0061C30.8114 24.2219 30.7171 24.4288 30.5493 24.5814C30.3815 24.734 30.154 24.8198 29.9167 24.8198ZM29.9167 21.565H22.7595C22.5222 21.565 22.2947 21.4793 22.1269 21.3267C21.9591 21.1741 21.8648 20.9671 21.8648 20.7513C21.8648 20.5355 21.9591 20.3286 22.1269 20.176C22.2947 20.0234 22.5222 19.9376 22.7595 19.9376H29.9167C30.154 19.9376 30.3815 20.0234 30.5493 20.176C30.7171 20.3286 30.8114 20.5355 30.8114 20.7513C30.8114 20.9671 30.7171 21.1741 30.5493 21.3267C30.3815 21.4793 30.154 21.565 29.9167 21.565Z" fill="#343434"/>
<path d="M54.7018 28.3789V23.7379C54.2202 23.8739 53.7527 23.9816 53.2993 24.0609C52.846 24.1346 52.3643 24.1714 51.8543 24.1714C50.942 24.1714 50.1543 24.0184 49.4913 23.7124C48.8283 23.4064 48.3183 22.9276 47.9613 22.2759C47.6043 21.6186 47.4258 20.7601 47.4258 19.7004V16.4789H49.9418V19.3519C49.9418 20.2926 50.143 20.9556 50.5453 21.3409C50.9533 21.7262 51.5398 21.9189 52.3048 21.9189C52.7865 21.9189 53.2143 21.8934 53.5883 21.8424C53.968 21.7914 54.3392 21.7234 54.7018 21.6384V16.4789H57.2178V28.3789H54.7018ZM62.3759 28.6339C61.7979 28.6339 61.2822 28.5234 60.8289 28.3024C60.3755 28.0814 60.0185 27.7669 59.7579 27.3589C59.4972 26.9452 59.3669 26.4522 59.3669 25.8799C59.3669 25.3926 59.4887 24.9591 59.7324 24.5794C59.976 24.1997 60.3444 23.8881 60.8374 23.6444C61.336 23.3951 61.965 23.2279 62.7244 23.1429C63.4894 23.0522 64.3904 23.0579 65.4274 23.1599L65.4529 24.7409C64.8352 24.6389 64.2884 24.5907 63.8124 24.5964C63.342 24.6021 62.9454 24.6502 62.6224 24.7409C62.305 24.8316 62.0642 24.9647 61.8999 25.1404C61.7355 25.3104 61.6534 25.5172 61.6534 25.7609C61.6534 26.0952 61.778 26.3531 62.0274 26.5344C62.2767 26.7101 62.6139 26.7979 63.0389 26.7979C63.4072 26.7979 63.7387 26.7327 64.0334 26.6024C64.328 26.4721 64.5632 26.2822 64.7389 26.0329C64.9145 25.7836 65.0024 25.4804 65.0024 25.1234V23.0664C65.0024 22.7321 64.9315 22.4402 64.7899 22.1909C64.6539 21.9359 64.4385 21.7404 64.1439 21.6044C63.8492 21.4627 63.4639 21.3919 62.9879 21.3919C62.5459 21.3919 62.1039 21.4599 61.6619 21.5959C61.2255 21.7262 60.826 21.9274 60.4634 22.1994L59.8089 20.4654C60.3585 20.1141 60.9422 19.8591 61.5599 19.7004C62.1775 19.5361 62.781 19.4539 63.3704 19.4539C64.175 19.4539 64.8777 19.5814 65.4784 19.8364C66.079 20.0914 66.5437 20.4852 66.8724 21.0179C67.2067 21.5449 67.3739 22.2164 67.3739 23.0324V28.3789H65.2149V27.4354C64.9315 27.8207 64.5434 28.1182 64.0504 28.3279C63.5574 28.5319 62.9992 28.6339 62.3759 28.6339ZM71.2685 28.3789V21.7829H68.676V19.7939H76.3345V21.7829H73.7505V28.3789H71.2685Z" fill="#343434"/>
<g filter="url(#filter0_d_189_2204)">
<circle cx="36.4238" cy="12.3364" r="4" fill="#178040"/>
</g>
<defs>
<filter id="filter0_d_189_2204" x="28.4238" y="6.33643" width="16" height="16" filterUnits="userSpaceOnUse" color-interpolation-filters="sRGB">
<feFlood flood-opacity="0" result="BackgroundImageFix"/>
<feColorMatrix in="SourceAlpha" type="matrix" values="0 0 0 0 0 0 0 0 0 0 0 0 0 0 0 0 0 0 127 0" result="hardAlpha"/>
<feOffset dy="2"/>
<feGaussianBlur stdDeviation="2"/>
<feComposite in2="hardAlpha" operator="out"/>
<feColorMatrix type="matrix" values="0 0 0 0 0 0 0 0 0 0 0 0 0 0 0 0 0 0 0.15 0"/>
<feBlend mode="normal" in2="BackgroundImageFix" result="effect1_dropShadow_189_2204"/>
<feBlend mode="normal" in="SourceGraphic" in2="effect1_dropShadow_189_2204" result="shape"/>
</filter>
</defs>
</svg>
