<svg width="25" height="21" viewBox="0 0 25 21" fill="none" xmlns="http://www.w3.org/2000/svg">
<path fill-rule="evenodd" clip-rule="evenodd" d="M21.8192 0.178864C22.0962 0.0122509 22.4269 -0.0405924 22.742 0.031425C23.0571 0.103442 23.3321 0.294721 23.5092 0.565114L24.7467 2.45261C24.908 2.69919 24.977 2.99483 24.9416 3.28735C24.9061 3.57987 24.7685 3.85046 24.553 4.05136L24.5492 4.05636L24.5317 4.07261L24.4605 4.13886L24.1792 4.40761C22.623 5.91719 21.114 7.4746 19.6542 9.07761C16.908 12.0976 13.6467 16.0501 11.4517 19.8851C10.8392 20.9551 9.34295 21.1851 8.45545 20.2614L0.349203 11.8389C0.233034 11.7181 0.142327 11.5752 0.0824734 11.4187C0.0226195 11.2622 -0.00515941 11.0953 0.000787639 10.9279C0.00673469 10.7604 0.0462863 10.5959 0.117092 10.444C0.187897 10.2921 0.288511 10.1561 0.412953 10.0439L2.86295 7.83386C3.07825 7.63975 3.35433 7.52651 3.64392 7.51351C3.93352 7.50051 4.21863 7.58857 4.45045 7.76261L8.5867 10.8639C15.048 4.49261 18.7117 2.04761 21.8192 0.178864Z" fill="#267F53"/>
</svg>
