<svg width="18" height="18" viewBox="0 0 18 18" fill="none" xmlns="http://www.w3.org/2000/svg">
<path d="M8.99976 1.6875C10.1105 1.68796 11.2067 1.94148 12.2048 2.42871C13.203 2.91599 14.0769 3.62453 14.7605 4.5C15.444 5.37544 15.9195 6.39501 16.1501 7.48145C16.3807 8.5679 16.3605 9.6929 16.0916 10.7705C15.8225 11.8482 15.3116 12.8514 14.5974 13.7021C13.8833 14.5527 12.9842 15.2291 11.9695 15.6807C10.9548 16.1321 9.85085 16.3465 8.74097 16.3076C7.63087 16.2687 6.54392 15.9777 5.56323 15.4561L3.1687 16.2539C2.97055 16.3199 2.75773 16.3302 2.55444 16.2822C2.35115 16.2342 2.16504 16.1301 2.01733 15.9824C1.86968 15.8347 1.76649 15.6486 1.71851 15.4453C1.67052 15.242 1.67976 15.0293 1.74585 14.8311L2.5437 12.4365C1.95048 11.3223 1.6557 10.0734 1.68823 8.81152C1.72078 7.54964 2.07941 6.31752 2.72925 5.23535C3.37918 4.15323 4.29861 3.25739 5.39722 2.63574C6.49595 2.01413 7.73737 1.68728 8.99976 1.6875ZM8.99976 5.25C8.5857 5.25019 8.24976 5.5859 8.24976 6V8.25H5.99976C5.5857 8.25019 5.24976 8.5859 5.24976 9C5.24976 9.4141 5.5857 9.74981 5.99976 9.75H8.24976V12C8.24976 12.4141 8.5857 12.7498 8.99976 12.75C9.41397 12.75 9.74976 12.4142 9.74976 12V9.75H11.9998C12.414 9.75 12.7498 9.41421 12.7498 9C12.7498 8.58579 12.414 8.25 11.9998 8.25H9.74976V6C9.74976 5.58579 9.41397 5.25 8.99976 5.25Z" fill="#FFFCF5"/>
</svg>
